<mxfile host="65bd71144e">
    <diagram name="02" id="YMj1xpAl_SfOTKT0soET">
        <mxGraphModel dx="998" dy="971" grid="1" gridSize="10" guides="1" tooltips="1" connect="1" arrows="1" fold="1" page="1" pageScale="1" pageWidth="1169" pageHeight="827" math="0" shadow="0">
            <root>
                <mxCell id="ML3krrQk0YiTmpszw3Px-0"/>
                <mxCell id="ML3krrQk0YiTmpszw3Px-1" parent="ML3krrQk0YiTmpszw3Px-0"/>
                <mxCell id="ML3krrQk0YiTmpszw3Px-2" value="" style="rounded=0;whiteSpace=wrap;html=1;" parent="ML3krrQk0YiTmpszw3Px-1" vertex="1">
                    <mxGeometry x="40" y="70" width="490" height="440" as="geometry"/>
                </mxCell>
                <mxCell id="ML3krrQk0YiTmpszw3Px-3" value="" style="ellipse;whiteSpace=wrap;html=1;aspect=fixed;opacity=50;fillColor=none;" parent="ML3krrQk0YiTmpszw3Px-1" vertex="1">
                    <mxGeometry x="120" y="130" width="330" height="330" as="geometry"/>
                </mxCell>
                <mxCell id="0" value="" style="ellipse;whiteSpace=wrap;html=1;aspect=fixed;opacity=50;fillColor=none;" vertex="1" parent="ML3krrQk0YiTmpszw3Px-1">
                    <mxGeometry x="195" y="205" width="180" height="180" as="geometry"/>
                </mxCell>
                <mxCell id="ML3krrQk0YiTmpszw3Px-4" value="地図&lt;div&gt;～安全の欲求：住～&lt;/div&gt;" style="text;html=1;align=center;verticalAlign=middle;whiteSpace=wrap;rounded=0;fillColor=#dae8fc;strokeColor=#6c8ebf;" parent="ML3krrQk0YiTmpszw3Px-1" vertex="1">
                    <mxGeometry x="40" y="10" width="160" height="40" as="geometry"/>
                </mxCell>
                <mxCell id="2" value="" style="ellipse;whiteSpace=wrap;html=1;aspect=fixed;opacity=50;fillColor=none;" vertex="1" parent="ML3krrQk0YiTmpszw3Px-1">
                    <mxGeometry x="162.5" y="172.5" width="245" height="245" as="geometry"/>
                </mxCell>
                <mxCell id="ML3krrQk0YiTmpszw3Px-6" value="自身" style="ellipse;whiteSpace=wrap;html=1;aspect=fixed;opacity=50;fillColor=#d5e8d4;strokeColor=#82b366;" parent="ML3krrQk0YiTmpszw3Px-1" vertex="1">
                    <mxGeometry x="235" y="245" width="100" height="100" as="geometry"/>
                </mxCell>
                <mxCell id="3" value="衣服、空気" style="text;html=1;align=center;verticalAlign=middle;whiteSpace=wrap;rounded=0;" vertex="1" parent="ML3krrQk0YiTmpszw3Px-1">
                    <mxGeometry x="250" y="345" width="80" height="30" as="geometry"/>
                </mxCell>
                <mxCell id="6" value="" style="ellipse;whiteSpace=wrap;html=1;aspect=fixed;opacity=50;fillColor=none;" vertex="1" parent="ML3krrQk0YiTmpszw3Px-1">
                    <mxGeometry x="85" y="95" width="400" height="400" as="geometry"/>
                </mxCell>
                <mxCell id="4" value="家具、建具" style="text;html=1;align=center;verticalAlign=middle;whiteSpace=wrap;rounded=0;" vertex="1" parent="ML3krrQk0YiTmpszw3Px-1">
                    <mxGeometry x="250" y="384" width="80" height="30" as="geometry"/>
                </mxCell>
                <mxCell id="5" value="建物" style="text;html=1;align=center;verticalAlign=middle;whiteSpace=wrap;rounded=0;" vertex="1" parent="ML3krrQk0YiTmpszw3Px-1">
                    <mxGeometry x="250" y="420" width="80" height="30" as="geometry"/>
                </mxCell>
                <mxCell id="7" value="土地" style="text;html=1;align=center;verticalAlign=middle;whiteSpace=wrap;rounded=0;" vertex="1" parent="ML3krrQk0YiTmpszw3Px-1">
                    <mxGeometry x="250" y="465" width="80" height="30" as="geometry"/>
                </mxCell>
                <mxCell id="8" value="土地の構造" style="text;html=1;align=center;verticalAlign=middle;whiteSpace=wrap;rounded=0;" vertex="1" parent="ML3krrQk0YiTmpszw3Px-1">
                    <mxGeometry x="430" y="475" width="80" height="30" as="geometry"/>
                </mxCell>
            </root>
        </mxGraphModel>
    </diagram>
</mxfile>